<svg height="512pt" viewBox="0 0 512 512" width="512pt" xmlns="http://www.w3.org/2000/svg"><path d="m512 256c0 141.386719-114.613281 256-256 256s-256-114.613281-256-256 114.613281-256 256-256 256 114.613281 256 256zm0 0" fill="#57545c"/><path d="m512 256c0-17.460938-1.753906-34.507812-5.085938-50.984375l-136.839843-136.855469c-.480469-.472656-1-.917968-1.550781-1.324218-9.632813-7.121094-26.175782-1.089844-36.945313 13.472656-6.847656 9.265625-9.707031 19.746094-8.40625 27.984375l-49.722656 64.285156-96.527344-96.484375c-10.605469-11.449219-24.804687-15.648438-33.445313-9.257812-9.636718 7.125-8.714843 24.703124 2.054688 39.269531 1.515625 2.050781 3.148438 3.929687 4.859375 5.625l40.625 40.621093 46.816406 66.277344-133.753906 172.933594c-2.1875 2.828125-3.558594 6.203125-3.964844 9.753906-.652343 5.707032 1.140625 11.199219 4.871094 15.320313l87.746094 87.476562c20.238281 5.144531 41.433593 7.886719 63.269531 7.886719 141.386719 0 256-114.613281 256-256zm0 0" fill="#3a383f"/><path d="m348.476562 113.425781c3.609376-5.105469 2.453126-12.28125-2.574218-15.996093-5.023438-3.714844-12.222656-2.71875-16.046875 2.226562l-225.777344 291.90625c-2.1875 2.828125-3.558594 6.203125-3.964844 9.753906-.808593 7.042969 2.113281 13.761719 7.8125 17.976563 5.699219 4.214843 12.980469 5.035156 19.476563 2.203125 3.277344-1.429688 6.101562-3.730469 8.164062-6.652344zm0 0" fill="#ff9b00"/><path d="m135.570312 414.839844c-2.066406 2.925781-4.894531 5.222656-8.171874 6.660156-6.496094 2.832031-13.769532 2.003906-19.46875-2.210938l237.972656-321.855468c5.027344 3.714844 6.1875 10.890625 2.574218 15.992187l-6.304687 8.933594zm0 0" fill="#ff7600"/><path d="m368.519531 66.828125c-9.636719-7.125-26.175781-1.089844-36.945312 13.476563-10.765625 14.5625-11.6875 32.144531-2.050781 39.269531 9.632812 7.121093 26.171874 1.089843 36.941406-13.476563 10.769531-14.566406 11.6875-32.148437 2.054687-39.269531zm0 0" fill="#ffb844"/><path d="m366.464844 106.105469c-6.851563 9.261719-16.03125 15.070312-24.292969 16.25-4.726563.671875-9.144531-.179688-12.648437-2.773438l39-52.746093c9.632812 7.121093 8.714843 24.699218-2.058594 39.269531zm0 0" fill="#ff9b00"/><path d="m163.523438 113.425781c-3.609376-5.105469-2.453126-12.28125 2.574218-15.996093 5.023438-3.714844 12.222656-2.71875 16.046875 2.226562l225.777344 291.90625c2.1875 2.828125 3.558594 6.199219 3.964844 9.753906.808593 7.042969-2.113281 13.761719-7.8125 17.976563-5.699219 4.214843-12.980469 5.035156-19.476563 2.203125-3.277344-1.433594-6.101562-3.730469-8.164062-6.652344zm0 0" fill="#ffb942"/><path d="m376.429688 414.839844c2.066406 2.925781 4.894531 5.222656 8.171874 6.660156 6.496094 2.832031 13.769532 2.003906 19.46875-2.210938l-237.972656-321.855468c-5.023437 3.714844-6.1875 10.890625-2.574218 15.992187l6.304687 8.933594zm0 0" fill="#ff9b00"/><path d="m180.421875 80.316406c-10.769531-14.566406-27.308594-20.597656-36.945313-13.476562-9.632812 7.121094-8.714843 24.703125 2.054688 39.269531s27.308594 20.597656 36.941406 13.476563c9.636719-7.125 8.714844-24.703126-2.050781-39.269532zm0 0" fill="#ffc56e"/><path d="m145.535156 106.105469c6.851563 9.261719 16.03125 15.070312 24.292969 16.25 4.726563.671875 9.144531-.179688 12.648437-2.773438l-39-52.746093c-9.632812 7.121093-8.714843 24.699218 2.058594 39.269531zm0 0" fill="#ffb844"/></svg>